{"title":"Harry.Potter.And.The.Deathly.Hallows.2.2011.BDRip.XVID.AC3.HQ.Hi","uid":6779604,"size":2150953049,"categoryP":"video","categoryS":"movies","magnet":"?xt=urn:btih:4ec5cebde9ffacfb41f65b4b69f85a59aad5f86e&amp;dn=Harry.Potter.And.The.Deathly.Hallows.2.2011.BDRip.XVID.AC3.HQ.Hi&amp;tr=udp%3A%2F%2Ftracker.openbittorrent.com%3A80&amp;tr=udp%3A%2F%2Fopen.demonii.com%3A1337&amp;tr=udp%3A%2F%2Ftracker.coppersurfer.tk%3A6969&amp;tr=udp%3A%2F%2Fexodus.desync.com%3A6969","seeders":0,"leechers":0,"uploader":"sceneline","files":6,"time":1319849214,"description":"- &lt;a href=&quot;\nhttp://www.Speed.Cd&quot; rel=&quot;nofollow&quot; target=&quot;_NEW&quot;&gt;\nhttp://www.Speed.Cd&lt;/a&gt;      fast  and The Hottest Private Tracker on the net\n\nPlease Seed back to make the speed Faster!!!\n\n------------------nfo--------------------------\n-[IMG]http://img69.imageshack.us/img69/3838/deathlyhallows2bd2dtdhs.jpg[/IMG]\n\n\n\n[color=blue][size=4][b]Harry.Potter.And.The.Deathly.Hallows.2.2011.BDRip.XVID.AC3.HQ.Hive-CM8[/b][/size][/color]\n\n\n[b]Thx Hive\n\nCM8 Doing It Right The First Time :D\n\nSource: Bluray\n\nEncode:\n\nnormally i dont touch blurays much but as with hallows part 1 the bluray is again dark and colourless on my tv,also had grain and noise in the video.\nSince its mostly a dark movie you cant see that much, so i brightened the movie up a bit and made the colours stronger to get you a better viewing experience,and removed the grain from the video. \n\nEnhanced Video Comparison:\n\n[url]http://screenshotcomparison.com/comparison/90651[/url]\n\nScenes at daylight are now also better, perhaps a bit brighter as needed but for the dark scenes it helps a lot.\nenjoy\n\nPS: if anyone still prefers a straight bdrip as usual without brightness/colour adjustments just request it in comms and i will up it too\n\nVideo: 720x304 @bitrate 1800 2pass\nAudio: English DTS to AC3 5.1 @384\nSample: yes included\nSubs: yes english in srt /subs just for pinkdoll :D (will fit on any bluray-rip)[/b]\n\n\n[url]http://www.imdb.com/title/tt1201607/[/url]\n\n\nGeneral\nComplete name                  : Harry.Potter.And.The.Deathly.Hallows.2.2011.BDRip.XVID.AC3.HQ.Hive-CM8.avi\nFormat                         : AVI\nFormat/Info                    : Audio Video Interleave\nFormat profile                 : OpenDML\nFormat settings                : rec\nFile size                      : 1.99 GiB\nDuration                       : 2h 10mn\nOverall bit rate               : 2 189 Kbps\nWriting application            : AVI-Mux GUI 1.17.7, Aug  8 2006  20:59:17\n\nVideo\nID                             : 0\nFormat                         : MPEG-4 Visual\nFormat profile                 : Advanced Simple@L5\nFormat settings, BVOP          : 2\nFormat settings, QPel          : Yes\nFormat settings, GMC           : No warppoints\nFormat settings, Matrix        : Default (H.263)\nMuxing mode                    : Packed bitstream\nCodec ID                       : XVID\nCodec ID/Hint                  : XviD\nDuration                       : 2h 10mn\nBit rate                       : 1 800 Kbps\nWidth                          : 720 pixels\nHeight                         : 304 pixels\nDisplay aspect ratio           : 2.35:1\nFrame rate                     : 23.976 fps\nColor space                    : YUV\nChroma subsampling             : 4:2:0\nBit depth                      : 8 bits\nScan type                      : Progressive\nCompression mode               : Lossy\nBits/(Pixel*Frame)             : 0.343\nStream size                    : 1.64 GiB (82%)\nWriting library                : XviD 1.2.1 (UTC 2008-12-04)\n\nAudio\nID                             : 1\nFormat                         : AC-3\nFormat/Info                    : Audio Coding 3\nMode extension                 : CM (complete main)\nCodec ID                       : 2000\nDuration                       : 2h 10mn\nBit rate mode                  : Constant\nBit rate                       : 384 Kbps\nChannel(s)                     : 6 channels\nChannel positions              : Front: L C R, Side: L R, LFE\nSampling rate                  : 48.0 KHz\nBit depth                      : 16 bits\nCompression mode               : Lossy\nStream size                    : 358 MiB (18%)\nAlignment                      : Aligned on interleaves\nInterleave, duration           : 64 ms (1.53 video frames)\nInterleave, preload duration   : 192 ms\n\n\nPlot:\n\nThe final chapter begins as Harry, Ron, and Hermione continue their quest of finding and destroying the Dark Lord's three remaining Horcruxes, the magical items responsible for his immortality. But as the mystical Deathly Hallows are uncovered, and Voldemort finds out about their mission, the biggest battle begins and life as they know it will never be the same again.\n\nCast:\n\nDaniel Radcliffe ... \tHarry Potter\nRupert Grint\t... \tRon Weasley\nEmma Watson\t... \tHermione Granger\nRalph Fiennes\t... \tLord Voldemort\nAlan Rickman\t... \tProfessor Severus Snape\n\n\n[img]http://img600.imageshack.us/img600/9381/75649054.png[/img]\n[img]http://img155.imageshack.us/img155/1884/hahase.png[/img]\n[img]http://img225.imageshack.us/img225/7353/hahahan.png[/img]\n[img]http://img805.imageshack.us/img805/531/hahahahao.png[/img]\n[img]http://img511.imageshack.us/img511/1673/hahahahaha.png[/img]\n[img]http://img221.imageshack.us/img221/9785/hahahahahahaf.png[/img]\n[img]http://img853.imageshack.us/img853/9421/hahahahahahaha.png[/img]\n[img]http://img695.imageshack.us/img695/9175/hahahahahahahahaj.png[/img]\n[img]http://img706.imageshack.us/img706/6456/hahahahahahahahaha.png[/img]\n\n\n\n\n\nGreetz\n\nViSiON,SPK,SiC,SANTi,3LT0N,FUSiON,YanKeeS,MAGNET,THC,T0XiC,LKRG,FANTASIA-PLAY,FANTASIA-M,FLAWL3SS,\nWBZ,BHRG,NOVA,D2U,Vik,Rapeseed,SAFC,goldadvance,MEMORY100,KaN1vE,Unevano,Pinnz,Wayne\nMr Hive,and all P2P groups\nGreat Work Guys :D\n\nLOOKING FOR ANYTHING YOU WANT TO LOOK AND SOUND BETTER\n\n&lt;a class=&quot;__cf_email__&quot; href=&quot;/cdn-cgi/l/email-protection&quot; data-cfemail=&quot;581b156018302d2b3035393134763b3735&quot;&gt;[email&amp;#160;protected]&lt;/a&gt;&lt;script cf-hash='f9e31' type=&quot;text/javascript&quot;&gt;\n/* &lt;![CDATA[ */!function(){try{var t=&quot;currentScript&quot;in document?document.currentScript:function(){for(var t=document.getElementsByTagName(&quot;script&quot;),e=t.length;e--;)if(t[e].getAttribute(&quot;cf-hash&quot;))return t[e]}();if(t&amp;&amp;t.previousSibling){var e,r,n,i,c=t.previousSibling,a=c.getAttribute(&quot;data-cfemail&quot;);if(a){for(e=&quot;&quot;,r=parseInt(a.substr(0,2),16),n=2;a.length-n;n+=2)i=parseInt(a.substr(n,2),16)^r,e+=String.fromCharCode(i);e=document.createTextNode(e),c.parentNode.replaceChild(e,c)}}}catch(u){}}();/* ]]&gt; */&lt;/script&gt;","torrent":{"xt":"urn:btih:4ec5cebde9ffacfb41f65b4b69f85a59aad5f86e","amp;dn":"Harry.Potter.And.The.Deathly.Hallows.2.2011.BDRip.XVID.AC3.HQ.Hi","amp;tr":["udp%3A%2F%2Ftracker.openbittorrent.com%3A80","udp%3A%2F%2Fopen.demonii.com%3A1337","udp%3A%2F%2Ftracker.coppersurfer.tk%3A6969","udp%3A%2F%2Fexodus.desync.com%3A6969"],"infoHash":"4ec5cebde9ffacfb41f65b4b69f85a59aad5f86e","infoHashBuffer":{"type":"Buffer","data":[78,197,206,189,233,255,172,251,65,246,91,75,105,248,90,89,170,213,248,110]},"announce":[],"urlList":[]}}